<svg version="1.1" xmlns="http://www.w3.org/2000/svg" xmlns:xlink="http://www.w3.org/1999/xlink" x="0px" y="0px" width="23px" height="22px"
viewBox="0 0 510 510" style="enable-background:new 0 0 22 23;" xml:space="preserve">
<path fill="#f8f8f8" d="m504.570312 282.128906c-9.914062-9.90625-25.980468-9.90625-35.886718 0l-37.246094 37.246094c-4.078125 4.074219-9.605469 6.367188-15.375 6.367188h-122.710938c-12.042968 0-21.792968-9.761719-21.792968-21.792969 0-12.042969 9.742187-21.792969 21.792968-21.792969h54.515626c12.757812 0 23.109374-10.351562 23.109374-23.109375 0-12.789063-10.378906-23.097656-23.109374-23.097656-117.113282 0 4.4375-.011719-112.457032-.011719-28.234375 0-54.996094 12.574219-73.019531 34.292969l-48.242187 50.84375 82.085937 82.085937.21875-.269531c8.980469-10.984375 22.402344-17.351563 36.59375-17.351563h192.457031c7.394532 0 14.480469-2.933593 19.707032-8.164062 30.886718-30.898438 17.859374-17.875 59.359374-59.359375 9.90625-9.90625 9.90625-25.972656 0-35.886719zm0 0"/>
<path fill="#f8f8f8" d="m0 396.554688v105.671874h148.59375l-127.132812-127.132812zm0 0"/>
<path fill="#f8f8f8" d="m72.8125 323.742188c-.953125.957031-28.398438 28.398437-29.351562 29.351562l129.039062 129.035156c1.261719-1.261718 28.148438-28.144531 29.34375-29.34375-62.617188-62.617187-75.636719-75.648437-129.03125-129.042968zm0 0"/>
<path fill="#f8f8f8" d="m444.835938 0h-37.132813v99.617188c0 12.28125-13.589844 19.695312-23.917969 13.121093l-32.175781-20.519531-32.164063 20.519531c-10.34375 6.582031-23.929687-.859375-23.929687-13.121093v-99.617188h-37.132813c-8.589843 0-15.558593 6.964844-15.558593 15.558594v170.066406c0 8.589844 6.96875 15.554688 15.558593 15.554688h186.453126c8.59375 0 15.558593-6.964844 15.558593-15.554688v-170.066406c0-8.59375-6.964843-15.558594-15.558593-15.558594zm0 0"/>
<path fill="#f8f8f8" d="m359.980469 60.648438 16.605469 10.589843v-71.238281h-49.953126v71.238281l16.617188-10.589843c5.105469-3.246094 11.628906-3.257813 16.730469 0zm0 0"/>
</svg>
