<svg version="1.1" xmlns="http://www.w3.org/2000/svg" xmlns:xlink="http://www.w3.org/1999/xlink" x="0px" y="0px" width="23px" height="22px"
viewBox="0 0 510 510" style="enable-background:new 0 0 22 23;" xml:space="preserve">
<g>
    <path fill="#3B1E0B" d="M 364.398438 18.066406 C 386.015625 18.066406 403.597656 35.652344 403.597656 57.265625 L 403.597656 78.398438 L 325.199219 78.398438 L 325.199219 57.269531 C 325.199219 35.652344 342.785156 18.066406 364.398438 18.066406 Z M 216.800781 39.199219 C 216.800781 17.585938 234.386719 0 256 0 C 277.613281 0 295.199219 17.585938 295.199219 39.199219 L 295.199219 78.398438 L 256 78.398438 C 241.457031 78.398438 227.953125 82.921875 216.800781 90.617188 Z M 108.398438 57.269531 C 108.398438 35.652344 125.984375 18.066406 147.597656 18.066406 C 169.214844 18.066406 186.800781 35.652344 186.800781 57.269531 L 186.800781 147.601562 C 186.800781 169.214844 169.214844 186.800781 147.597656 186.800781 C 125.984375 186.800781 108.398438 169.214844 108.398438 147.601562 Z M 39.199219 54.199219 C 60.816406 54.199219 78.398438 71.785156 78.398438 93.398438 L 78.398438 147.601562 C 78.398438 169.214844 60.816406 186.800781 39.199219 186.800781 C 22.871094 186.800781 8.851562 176.765625 2.964844 162.535156 L 0 146.246094 L 0 93.398438 C 0 71.785156 17.585938 54.199219 39.199219 54.199219 Z M 421.582031 345.265625 C 415.476562 375.535156 390.367188 403.859375 359.058594 415.785156 C 353.242188 418 349.398438 423.578125 349.398438 429.800781 L 349.398438 481.835938 C 349.398438 498.46875 335.867188 512 319.230469 512 L 138.566406 512 C 121.929688 512 108.398438 498.46875 108.398438 481.835938 L 108.398438 429.800781 C 108.398438 423.578125 104.554688 418 98.738281 415.785156 C 67.441406 403.867188 42.332031 375.535156 36.21875 345.265625 L 11.808594 211.136719 C 20.214844 214.773438 29.472656 216.800781 39.199219 216.800781 C 61.140625 216.800781 80.714844 206.527344 93.402344 190.546875 C 106.089844 206.527344 125.660156 216.800781 147.597656 216.800781 C 169.539062 216.800781 189.113281 206.527344 201.800781 190.546875 C 214.488281 206.527344 234.058594 216.800781 256 216.800781 L 364.398438 216.800781 C 372.683594 216.800781 379.398438 210.085938 379.398438 201.800781 C 379.398438 193.515625 372.683594 186.800781 364.398438 186.800781 L 256 186.800781 C 234.386719 186.800781 216.800781 169.214844 216.800781 147.601562 C 216.800781 125.984375 234.386719 108.402344 256 108.402344 L 418.597656 108.402344 C 439.816406 108.402344 457.136719 125.347656 457.769531 146.414062 Z M 421.582031 345.265625 "/>
</g>
</svg>
