<svg version="1.1" xmlns="http://www.w3.org/2000/svg" xmlns:xlink="http://www.w3.org/1999/xlink" x="0px" y="0px" width="23px" height="22px"
viewBox="0 0 510 510" style="enable-background:new 0 0 22 23;" xml:space="preserve">
<g>
	<path fill="#FFF" d="M45,180.922H15c-8.291,0-15,6.709-15,15s6.709,15,15,15h30c8.291,0,15-6.709,15-15S53.291,180.922,45,180.922z" />
</g>
<g>
	<path fill="#FFF" d="M51.211,105.922L30,84.711c-5.859-5.859-15.352-5.859-21.211,0s-5.859,15.352,0,21.211L30,127.133    c5.86,5.86,15.351,5.86,21.211,0C57.07,121.274,57.07,111.781,51.211,105.922z" />
</g>
<g>
	<path fill="#FFF" d="M51.211,264.711c-5.859-5.859-15.352-5.859-21.211,0L8.789,285.922c-5.859,5.859-5.859,15.352,0,21.211    c5.86,5.86,15.351,5.86,21.211,0l21.211-21.211C57.07,280.063,57.07,270.57,51.211,264.711z" />
</g>
<g>
	<path fill="#FFF" d="M497,180.922h-30c-8.291,0-15,6.709-15,15s6.709,15,15,15h30c8.291,0,15-6.709,15-15S505.291,180.922,497,180.922z" />
</g>
<g>
	<path fill="#FFF" d="M503.211,84.711c-5.859-5.859-15.352-5.859-21.211,0l-21.211,21.211c-5.859,5.859-5.859,15.352,0,21.211    c5.86,5.86,15.351,5.86,21.211,0l21.211-21.211C509.07,100.063,509.07,90.57,503.211,84.711z" />
</g>
<g>
	<path fill="#FFF" d="M503.211,285.922L482,264.711c-5.859-5.859-15.352-5.859-21.211,0s-5.859,15.352,0,21.211L482,307.133    c5.86,5.86,15.351,5.86,21.211,0C509.07,301.274,509.07,291.781,503.211,285.922z" />
</g>
<g>
	<path fill="#FFF" d="M256,165.922c-8.276,0-15,6.724-15,15s6.724,15,15,15s15-6.724,15-15S264.276,165.922,256,165.922z" />
</g>
<g>
	<path fill="#FFF" d="M329.593,194.56c1.872-10.127,1.872-17.149,0-27.275c-1.157-6.255,1.758-12.539,7.251-15.718l4.6-2.651l-15-25.986    l-4.82,2.783c-5.463,3.179-12.392,2.534-17.226-1.567c-7.031-5.991-14.912-10.562-23.423-13.579    c-5.977-2.124-9.976-7.793-9.976-14.136v-5.508h-30v5.508c0,6.343-3.999,12.012-9.976,14.136    c-8.511,3.018-16.392,7.588-23.423,13.579c-4.834,4.102-11.763,4.746-17.227,1.567l-4.819-2.783l-15,25.986l4.6,2.651    c5.493,3.179,8.408,9.463,7.251,15.718c-1.872,10.127-1.872,17.149,0,27.275c1.157,6.255-1.758,12.539-7.251,15.718l-4.6,2.651    l15,25.986l4.819-2.783c5.464-3.179,12.393-2.549,17.227,1.567c7.031,5.991,14.912,10.562,23.423,13.579    c5.977,2.124,9.976,7.793,9.976,14.136v5.508h30v-5.508c0-6.343,3.999-12.012,9.976-14.136    c8.511-3.018,16.392-7.588,23.423-13.579c4.834-4.116,11.763-4.746,17.226-1.567l4.82,2.783l15-25.986l-4.6-2.651    C331.351,207.099,328.436,200.815,329.593,194.56z M256,225.922c-24.814,0-45-20.186-45-45c0-24.814,20.186-45,45-45    c24.814,0,45,20.186,45,45C301,205.736,280.814,225.922,256,225.922z" />
</g>
<g>
	<path fill="#FFF" d="M369.452,41.176C327.162,6.796,271.674-7.49,217.343,3.965C149.638,18.101,94.501,74.062,80.146,141.738    c-12.202,57.583,2.856,115.386,41.294,158.599c15.54,17.487,25.02,38.593,28.129,60.586h212.915    c3.215-21.888,12.973-43.33,28.956-61.567c28.74-32.77,44.56-74.84,44.56-118.434C436,126.474,411.742,75.542,369.452,41.176z     M360.604,189.345l8.833,5.098c7.229,4.184,9.605,13.387,5.493,20.493l-30,51.973c-4.264,7.367-13.487,9.471-20.493,5.493    l-9.141-5.288c-4.556,3.149-9.331,5.918-14.297,8.291v10.518c0,8.291-6.709,15-15,15h-60c-8.291,0-15-6.709-15-15v-10.518    c-4.966-2.373-9.741-5.142-14.297-8.291l-9.141,5.288c-7.006,3.978-16.23,1.874-20.493-5.493l-30-51.973    c-4.112-7.106-1.736-16.309,5.493-20.493l8.833-5.098c-0.525-5.838-0.527-10.984,0-16.846l-8.833-5.098    c-7.229-4.184-9.605-13.387-5.493-20.493l30-51.973c4.161-7.19,13.354-9.607,20.493-5.493l9.141,5.288    c4.556-3.149,9.331-5.918,14.297-8.291V75.922c0-8.291,6.709-15,15-15h60c8.291,0,15,6.709,15,15V86.44    c4.966,2.373,9.741,5.142,14.297,8.291l9.141-5.288c7.154-4.123,16.341-1.682,20.493,5.493l30,51.973    c4.112,7.106,1.736,16.309-5.493,20.493l-8.833,5.098C361.13,178.338,361.132,183.483,360.604,189.345z" />
</g>
<g>
	<path fill="#FFF" d="M151,390.922v15c0,24.814,20.186,45,45,45h120c24.814,0,45-20.186,45-45v-15H151z" />
</g>
<g>
	<path fill="#FFF" d="M183.763,480.922c6.213,17.423,22.707,31,42.237,31h60c19.53,0,36.024-13.578,42.237-31H183.763z" />
</g>
</svg>